<?xml version="1.0" standalone="no"?>
<!DOCTYPE svg PUBLIC "-//W3C//DTD SVG 20010904//EN"
 "http://www.w3.org/TR/2001/REC-SVG-20010904/DTD/svg10.dtd">
<svg version="1.0" xmlns="http://www.w3.org/2000/svg"
 width="1200.000000pt" height="1200.000000pt" viewBox="0 0 1200.000000 1200.000000"
 preserveAspectRatio="xMidYMid meet">

<g transform="translate(0.000000,1200.000000) scale(0.100000,-0.100000)"
fill="#f5cf4b" stroke="none">
<path d="M5200 9181 c-149 -106 -620 -439 -760 -536 -30 -21 -215 -151 -410
-289 -195 -137 -413 -291 -485 -341 -71 -50 -254 -178 -405 -285 -151 -106
-534 -376 -850 -598 -316 -223 -694 -489 -840 -592 -146 -103 -373 -262 -505
-355 -132 -92 -244 -172 -249 -176 -12 -11 -33 5 309 -236 154 -108 453 -319
665 -468 212 -149 448 -316 525 -370 77 -54 382 -269 679 -478 583 -410 655
-461 761 -535 39 -27 225 -158 415 -292 1006 -709 1322 -931 1325 -928 1 2
-18 46 -44 98 -26 52 -125 257 -221 455 -95 198 -256 531 -358 740 -101 209
-196 405 -210 435 -15 30 -28 58 -30 63 -2 4 1529 7 3402 7 l3406 0 0 1500 0
1500 -3405 0 -3404 0 33 73 c19 39 80 167 136 282 56 116 130 269 165 340 155
323 498 1031 516 1066 11 22 16 39 12 38 -5 0 -82 -53 -173 -118z"/>
</g>
</svg>
