<?xml version="1.0" standalone="no"?>
<!DOCTYPE svg PUBLIC "-//W3C//DTD SVG 20010904//EN"
 "http://www.w3.org/TR/2001/REC-SVG-20010904/DTD/svg10.dtd">
<svg version="1.0" xmlns="http://www.w3.org/2000/svg"
 width="1261.000000pt" height="1362.000000pt" viewBox="0 0 1261.000000 1362.000000"
 preserveAspectRatio="xMidYMid meet">

<g transform="translate(0.000000,1362.000000) scale(0.100000,-0.100000)"
fill="#f5cf4b" stroke="none">
<path d="M6168 13108 l-3 -503 -155 -7 c-1308 -60 -2587 -539 -3607 -1350
-1267 -1007 -2091 -2431 -2327 -4023 -51 -344 -60 -491 -60 -920 0 -429 9
-576 60 -920 285 -1922 1435 -3601 3124 -4560 1559 -885 3429 -1062 5133 -485
1201 406 2242 1160 3013 2183 674 893 1101 1971 1223 3087 20 181 41 503 41
628 l0 62 -748 0 -749 0 -6 -172 c-32 -874 -300 -1719 -774 -2443 -313 -477
-719 -908 -1168 -1240 -1054 -781 -2362 -1093 -3665 -874 -996 167 -1906 645
-2625 1380 -232 237 -375 412 -552 675 -434 644 -695 1353 -790 2149 -14 120
-18 227 -18 530 0 407 8 517 61 825 146 857 542 1680 1130 2350 112 128 377
388 499 491 669 561 1457 928 2295 1068 183 31 435 58 580 63 l85 3 5 -501 5
-501 1692 876 c931 481 1689 878 1685 882 -6 5 -3197 1657 -3329 1723 l-53 26
-2 -502z"/>
</g>

</svg>
